PathFileType	4	(X/Y/Z)	RBDS09\RBDS09runT45.trc
DataRate	CameraRate	NumFrames	NumMarkers	Units	OrigDataRate	OrigDataStartFrame	OrigNumFrames
150.000000	150.000000	4	33	mm	150.000000	0	4500
Frame#	Time	L.ASIS			L.Heel.Bottom			L.Heel.Lateral			L.Heel.Top			L.Iliac.Crest			L.MT1			L.MT5			L.PSIS			L.Shank.Bottom.Lateral			L.Shank.Bottom.Medial			L.Shank.Top.Lateral			L.Shank.Top.Medial			L.Thigh.Bottom.Lateral			L.Thigh.Bottom.Medial			L.Thigh.Top.Lateral			L.Thigh.Top.Medial			R.ASIS			R.ASY			R.Heel.Bottom			R.Heel.Lateral			R.Heel.Top			R.Iliac.Crest			R.MT1			R.MT5			R.PSIS			R.Shank.Bottom.Lateral			R.Shank.Bottom.Medial			R.Shank.Top.Lateral			R.Shank.Top.Medial			R.Thigh.Bottom.Lateral			R.Thigh.Bottom.Medial			R.Thigh.Top.Lateral			R.Thigh.Top.Medial			
		X1	Y1	Z1	X2	Y2	Z2	X3	Y3	Z3	X4	Y4	Z4	X5	Y5	Z5	X6	Y6	Z6	X7	Y7	Z7	X8	Y8	Z8	X9	Y9	Z9	X10	Y10	Z10	X11	Y11	Z11	X12	Y12	Z12	X13	Y13	Z13	X14	Y14	Z14	X15	Y15	Z15	X16	Y16	Z16	X17	Y17	Z17	X18	Y18	Z18	X19	Y19	Z19	X20	Y20	Z20	X21	Y21	Z21	X22	Y22	Z22	X23	Y23	Z23	X24	Y24	Z24	X25	Y25	Z25	X26	Y26	Z26	X27	Y27	Z27	X28	Y28	Z28	X29	Y29	Z29	X30	Y30	Z30	X31	Y31	Z31	X32	Y32	Z32	X33	Y33	Z33	

1	0	2373.423373727637	973.8928974454583	932.7452639739322	2201.110527468103	193.178381641789	989.1720087671257	2230.654060310789	197.3837273508352	941.2404733100145	2231.881983147093	231.9023748259589	986.9243703894217	2297.319763759242	1039.07822875861	891.5687601334921	2394.958729059416	95.22670216736448	978.0410955029089	2340.691198059493	119.4683695713815	883.56303311034	2216.151580391388	1003.244625980774	1008.58613876213	2317.54713694973	294.7467295991577	910.0283573532046	2290.339099472319	310.3358407493441	953.8694964217115	2346.003010956704	369.221436280595	899.7486776773808	2320.031576586499	385.4791040842697	943.9766055291826	2431.01801090108	649.4682308515046	878.2664499210473	2386.655241486909	612.9948948938047	923.763121265113	2356.385402110506	731.3931616009671	874.4680215084982	2314.580155271516	696.6578538498751	917.9187694206943	2375.797745060446	943.5852382267836	1163.248232706747	1902.368373891504	124.3831274065241	1116.810800976891	1758.142488404266	225.2864796434117	1070.902814886048	1783.620004480249	207.5416550869803	1122.171642497977	1800.29592994683	246.4804715853549	1082.641922641325	2353.037858798361	1018.538354245665	1195.026451951134	1902.050661569931	71.70584760251634	1062.905843352272	1845.864886676331	81.56332242082826	1159.635646186748	2220.489705688459	997.5276796229901	1084.281475168072	1867.453584410207	293.7511126203785	1139.896614610589	1857.045229163838	307.9369306331711	1091.525276209487	1903.216871038451	369.669571229165	1152.361166165689	1891.324125208437	380.3075136766691	1101.349305303397	2133.344134692796	610.3127981044839	1181.611985047434	2080.516188450747	637.1532024635112	1139.151858879386	2171.479773794882	712.5331350464984	1195.847096827547	2123.951717288837	736.8093178805104	1151.555727594851	
2	0.006666666666666667	2374.011031322401	975.961804774539	932.3869352088429	2228.666049835622	173.6879651181974	988.5547445533467	2258.225911667558	179.5521376568079	940.7791879908089	2255.866564526886	214.4046808892577	985.5645093440315	2299.422500189249	1043.214951981452	892.25808578154	2427.957042939855	93.23109752880268	982.6947543928766	2374.599165160808	110.5224227297762	887.0621441097796	2217.24485063975	1006.80539375943	1009.866645866888	2336.933598037474	283.8985449375766	909.9637893644434	2308.429741808926	297.644925734405	953.413523778877	2359.741779693338	359.6435246149645	898.8164540919528	2332.541456371228	374.0215109550799	942.8271218095823	2428.203790176522	649.9465737900147	879.469576720973	2382.906989525598	613.9707894817982	924.4587065958067	2354.379946671684	732.8769592323134	875.299407584098	2312.308880190642	698.8511229855711	919.0012651524561	2377.447499399603	944.9359424528431	1162.63448451934	1883.298039339743	135.6507487438373	1115.791624977031	1743.99448446363	244.9965825364588	1075.700462608133	1769.195610425347	224.3982797740606	1125.801162647711	1787.347330202347	263.4338087359814	1086.889180308996	2357.054798492891	1020.814663905722	1194.296533013304	1879.039420513227	84.62590312478403	1060.731822005032	1824.883172314172	94.35245432431857	1158.475581896313	2222.284554103283	1001.242067937922	1085.798930311465	1856.130759153838	305.7287989640599	1142.786721255339	1845.43307105997	320.9127458898371	1094.824120990259	1895.284430982211	379.8862899755662	1155.091077848553	1882.708080618881	391.6618214126516	1104.600166288532	2133.180679197047	613.5207649462144	1181.858271393625	2079.916885519889	641.4134750590877	1140.776112090301	2172.975347501026	715.1480728141786	1196.205661604325	2124.954726592498	740.3606601773781	1153.223504457395	
3	0.01333333333333333	2374.456791824097	977.9539402248614	932.0366891812486	2255.935452325789	154.5974998220225	988.0914846360561	2285.462834829304	162.0899049884383	940.4495201271706	2279.548758731791	197.2117509937134	984.3424067080725	2301.258352790316	1047.081905196229	892.9109065092787	2460.262907649605	91.63075187306592	987.2032287480798	2407.872539406178	102.0179062423129	890.5041377753595	2218.198489820476	1010.147477047349	1011.113835124533	2355.856795432853	273.2784314402101	909.9892965927148	2326.145399819591	285.1777847612614	953.0860810651967	2373.06598293656	350.1808881412719	898.0386450858956	2344.700554105179	362.691791704141	941.8490961902539	2425.192460646643	650.1773024925286	880.6542918765365	2379.051651085339	614.7806441434539	925.2749691918319	2352.238414016111	734.1253188252667	876.1277416382001	2309.939856699652	700.8716905554259	920.1522385215856	2379.006202703988	946.2654333072883	1162.016127033111	1864.554961285739	147.2313565344439	1114.767211291994	1730.280763324089	264.8611709288169	1080.413780484351	1755.162618434179	241.4591871169771	1129.360549507759	1774.785939615616	280.5517184603115	1091.022690883428	2360.702637654407	1023.065294555162	1193.591430910157	1856.436266073312	97.89025253770561	1058.573847864874	1804.283689017885	107.5016170327476	1157.354175837954	2223.933684110415	1004.753999660925	1087.271486929303	1845.227917263807	317.8444838699455	1145.582225785957	1834.295142562731	334.0583174996951	1098.034236156605	1887.803264719322	390.1197020070878	1157.738427910684	1874.607625809323	403.0757462951851	1107.773967838598	2133.409869225133	616.318887207442	1182.077958967718	2079.665029293958	645.1761589712144	1142.377534399782	2174.667596661899	717.4178412005845	1196.597222176506	2126.093090699075	743.484637214563	1154.956101356145	
4	0.02	2374.641975391754	979.7951541505253	931.7086329874279	2282.708375197817	136.2817565805017	987.9355776879941	2312.117222763456	145.3398740369499	940.3870007610273	2302.726507223055	180.6155103095658	983.4036883548948	2302.592014968211	1050.455351939013	893.5041525365828	2491.324409624484	90.70693719614886	991.4619032441923	2439.998580136371	94.30425741754158	893.8572381600827	2218.898229481109	1013.063873077951	1012.287372775036	2373.95600524038	263.0622390462877	910.2002221078413	2343.209549226419	273.1025471360679	953.0224608675852	2385.643433290375	340.9074521477893	897.5692242443948	2356.237994841711	351.5703305510501	941.2166097674714	2421.801431396974	649.9287497072919	881.8142415046021	2374.980787228061	615.2653651314691	926.322222574744	2349.839676421127	734.9196931435438	876.9587937894327	2307.382484158073	702.5579201547328	921.4361869649675	2380.398091467769	947.5596079427037	1161.400762277073	1846.415809618185	159.4468114962616	1113.76363224668	1717.412058928073	285.0470657987563	1084.911721911869	1741.881708532237	258.95535688193	1132.740419114189	1762.973429170071	298.0084083693723	1094.900444165914	2363.634521469257	1025.280912684202	1192.942361024034	1834.587813320618	111.830201958437	1056.49198293257	1784.392046192983	121.4075537148122	1156.324316939858	2225.317421607432	1007.87131421013	1088.648505148249	1835.11307319138	330.2518301341979	1148.181752322856	1824.05338276829	347.5425911651935	1101.053756919275	1881.166595676307	400.4181263342082	1160.210962407946	1867.479592768654	414.6232108935673	1110.777872832911	2134.355267808837	618.3427316261668	1182.235375741572	2080.056308871271	647.993627378274	1143.89650312608	2176.706939575065	719.0385160473974	1197.033623886735	2127.480599635788	745.8051834789775	1156.76757093978	
